<svg height="512" viewBox="0 0 128 128" width="512" xmlns="http://www.w3.org/2000/svg"><g><path d="m42.59 6.306v12.95l12.09 11.876v72.394l9.32 18.168 9.32-18.168v-72.394l12.09-11.876v-12.95z" fill="#65727f"/><g><path d="m87.023 19.933c.006-.014.009-.03.014-.045a1.7 1.7 0 0 0 .088-.284 1.748 1.748 0 0 0 .035-.348v-12.949a1.75 1.75 0 0 0 -1.75-1.75h-42.82a1.75 1.75 0 0 0 -1.75 1.75v12.949a1.748 1.748 0 0 0 .035.348 1.7 1.7 0 0 0 .088.284c.005.015.008.031.014.045a1.719 1.719 0 0 0 .163.3c.009.014.022.025.031.038a1.779 1.779 0 0 0 .188.225v.006l11.571 11.363v11.925l-1.92.674a1.75 1.75 0 1 0 1.16 3.3l.76-.267v6.52l-1.92.675a1.75 1.75 0 1 0 1.16 3.308l.76-.267v6.52l-1.92.674a1.75 1.75 0 1 0 1.16 3.3l.76-.267v6.52l-1.92.674a1.75 1.75 0 1 0 1.16 3.3l.76-.267v6.52l-1.92.675a1.75 1.75 0 1 0 1.16 3.3l.76-.267v6.52l-1.92.674a1.75 1.75 0 1 0 1.16 3.3l.76-.267v4.88a1.741 1.741 0 0 0 .046.385c.008.036.022.07.033.106a1.714 1.714 0 0 0 .095.257c.008.017.011.035.019.051l9.32 18.167a1.75 1.75 0 0 0 3.114 0l2.629-5.124a1.75 1.75 0 1 0 -3.115-1.6l-1.071 2.095-6.455-12.583h12.91l-1.544 3.011a1.75 1.75 0 1 0 3.114 1.6l2.852-5.559c.008-.016.011-.034.019-.051a1.714 1.714 0 0 0 .095-.257c.011-.036.025-.07.033-.106a1.741 1.741 0 0 0 .046-.385v-12.662l1.92-.674a1.75 1.75 0 0 0 -1.16-3.3l-.76.267v-6.52l1.92-.674a1.75 1.75 0 0 0 -1.16-3.3l-.76.267v-6.52l1.92-.675a1.749 1.749 0 1 0 -1.16-3.3l-.76.267v-6.526l1.92-.674a1.75 1.75 0 0 0 -1.16-3.3l-.76.267v-6.522l1.92-.675a1.749 1.749 0 1 0 -1.16-3.3l-.76.267v-6.52l1.92-.675a1.749 1.749 0 1 0 -1.16-3.3l-.76.267v-4.149l11.566-11.365.005-.006a1.779 1.779 0 0 0 .188-.225c.009-.013.022-.024.031-.038a1.719 1.719 0 0 0 .163-.298zm-40.154 1.073h2.488a1.75 1.75 0 0 0 0-3.5h-5.017v-9.449h39.32v9.449h-12.91a1.75 1.75 0 0 0 0 3.5h10.381l-8.531 8.375h-17.2zm24.7 80.77h-15.139v-4.36l15.14-5.316zm0-13.388-15.139 5.319v-6.52l15.14-5.319zm0-10.229-15.139 5.319v-6.52l15.14-5.319zm0-10.23-15.139 5.319v-6.52l15.14-5.319zm0-10.229-15.139 5.319v-6.519l15.14-5.32zm0-10.23-15.139 5.32v-6.52l15.14-5.319zm-15.139-4.91v-9.679h15.14v4.36z"/><path d="m58.014 21.006h4.5a1.75 1.75 0 0 0 0-3.5h-4.5a1.75 1.75 0 0 0 0 3.5z"/></g></g></svg>