<svg id="Capa_1" enable-background="new 0 0 512 512" height="512" viewBox="0 0 512 512" width="512" xmlns="http://www.w3.org/2000/svg"><g><path d="m463.632 484.518h-415.264c-22.571 0-40.868-18.297-40.868-40.868v-22.013h474.987c12.158 0 22.013 9.856 22.013 22.013 0 22.571-18.297 40.868-40.868 40.868z" fill="#a7a7a7"/><path d="m365.047 136.569h-310.829c-25.801 0-46.718 20.916-46.718 46.718v238.35h404.265v-238.35c0-25.802-20.917-46.718-46.718-46.718z" fill="#59636f"/><path d="m209.632 314.201c87.32 0 158.36-71.04 158.36-158.359 0-6.508-.403-12.923-1.17-19.228-.59-.022-1.18-.045-1.775-.045h-310.829c-.595 0-1.185.023-1.775.045-.767 6.305-1.17 12.72-1.17 19.228-.001 87.32 71.04 158.359 158.359 158.359z" fill="#455060"/><path d="m48.078 365.454v-172.702c0-8.618 6.986-15.604 15.604-15.604h291.9c8.618 0 15.604 6.986 15.604 15.604v172.702c0 8.618-6.986 15.604-15.604 15.604h-291.9c-8.617 0-15.604-6.986-15.604-15.604z" fill="#cde9fa"/><g><g fill="#eda1ab"><ellipse cx="126.067" cy="350.299" rx="30.834" ry="24.555"/><ellipse cx="293.198" cy="350.299" rx="30.834" ry="24.555"/></g></g><path d="m355.582 177.148h-291.9c-3.992 0-7.623 1.512-10.383 3.979 12.142 75.343 77.618 133.075 156.332 133.075 78.715 0 144.191-57.732 156.333-133.075-2.759-2.467-6.389-3.979-10.382-3.979z" fill="#a2ddfd"/><ellipse cx="209.632" cy="155.842" fill="#88d37f" rx="128.36" ry="128.36" transform="matrix(.707 -.707 .707 .707 -48.797 193.877)"/><path d="m301.303 245.676c-171.486-3.538-177.148-157.37-144.693-206.763-44.435 20.182-75.337 64.945-75.337 116.928 0 70.891 57.468 128.36 128.36 128.36 35.912 0 68.374-14.754 91.67-38.525z" fill="#5ec682"/><ellipse cx="209.632" cy="155.842" fill="#fbf1cf" rx="89.904" ry="89.904" transform="matrix(.707 -.707 .707 .707 -48.797 193.877)"/><path d="m141.15 97.599c-13.357 15.69-21.422 36.023-21.422 58.243 0 49.653 40.252 89.904 89.904 89.904 12.869 0 25.104-2.71 36.173-7.58-80.466-21.999-105.921-87.659-104.655-140.567z" fill="#fae0bd"/><path d="m302.368 421.637h-92.737l3.906 11.833c3.863 11.703 14.796 19.608 27.119 19.608h30.687c12.323 0 23.257-7.905 27.119-19.608z" fill="#8b97a5"/><path d="m209.632 341.665c8.797 0 17.161-3.81 22.948-10.452 2.722-3.123 2.396-7.86-.728-10.582-3.123-2.721-7.861-2.396-10.581.728-2.939 3.372-7.181 5.306-11.64 5.306-4.458 0-8.7-1.934-11.639-5.307-2.723-3.123-7.46-3.448-10.582-.727-3.122 2.722-3.448 7.459-.727 10.582 5.79 6.643 14.154 10.452 22.949 10.452zm54.006-8.14c4.143 0 7.5-3.358 7.5-7.5 0-3.532 2.874-6.406 6.406-6.406s6.406 2.874 6.406 6.406c0 4.142 3.357 7.5 7.5 7.5s7.5-3.358 7.5-7.5c0-11.803-9.603-21.406-21.406-21.406-11.804 0-21.406 9.603-21.406 21.406 0 4.143 3.357 7.5 7.5 7.5zm-119.601.335c4.143 0 7.5-3.358 7.5-7.5v-12c0-4.142-3.357-7.5-7.5-7.5s-7.5 3.358-7.5 7.5v12c0 4.142 3.358 7.5 7.5 7.5zm338.449 80.277h-63.222v-230.85c0-29.896-24.322-54.218-54.218-54.218h-22.21c-12.467-62.135-67.453-109.087-133.204-109.087-27.978 0-54.848 8.439-77.706 24.403-3.395 2.372-4.226 7.047-1.854 10.443 2.37 3.396 7.046 4.226 10.443 1.854 20.326-14.197 44.227-21.701 69.116-21.701 66.643 0 120.86 54.217 120.86 120.86 0 66.642-54.218 120.859-120.86 120.859s-120.859-54.217-120.859-120.859c0-27.845 9.697-55.02 27.305-76.52 2.624-3.205 2.154-7.93-1.051-10.554-3.204-2.624-7.928-2.155-10.555 1.05-14.084 17.197-23.661 37.624-28.019 59.251h-22.234c-29.896.001-54.218 24.323-54.218 54.219v238.35 22.013c0 26.67 21.698 48.368 48.368 48.368h349.6c4.143 0 7.5-3.358 7.5-7.5s-3.357-7.5-7.5-7.5h-349.6c-18.399 0-33.368-14.969-33.368-33.368v-14.513h189.209l2.206 6.684c4.887 14.808 18.648 24.757 34.241 24.757h30.688c15.594 0 29.354-9.949 34.241-24.757l2.206-6.684h174.695c8.003 0 14.514 6.511 14.514 14.513 0 18.399-14.969 33.368-33.368 33.368h-28.495c-4.143 0-7.5 3.358-7.5 7.5s3.357 7.5 7.5 7.5h28.495c26.67 0 48.368-21.698 48.368-48.368 0-16.274-13.24-29.513-29.514-29.513zm-405.63-229.489c13.249 61.122 67.745 107.053 132.776 107.053 65.032 0 119.528-45.931 132.777-107.053h13.174c4.469 0 8.104 3.635 8.104 8.104v172.702c0 4.469-3.636 8.104-8.104 8.104h-291.9c-4.469 0-8.104-3.635-8.104-8.104v-172.702c0-4.469 3.636-8.104 8.104-8.104zm214.485 246.471c-2.854 8.648-10.891 14.458-19.997 14.458h-30.688c-9.106 0-17.143-5.81-19.997-14.458l-.654-1.982h71.99zm112.924-16.982c-9.721 0-384.176 0-389.265 0v-230.85c0-21.625 17.593-39.218 39.218-39.218h20.07c-.744 8.511-.68 17.075.182 25.579h-10.787c-12.74 0-23.104 10.364-23.104 23.104v172.702c0 12.74 10.364 23.104 23.104 23.104h291.899c12.74 0 23.104-10.364 23.104-23.104v-172.702c0-12.74-10.364-23.104-23.104-23.104h-10.787c.902-8.895.892-17.337.181-25.579h20.071c21.625 0 39.218 17.593 39.218 39.218zm-194.633-160.891c53.709 0 97.404-43.695 97.404-97.404s-43.695-97.404-97.404-97.404c-53.708 0-97.403 43.695-97.403 97.404s43.695 97.404 97.403 97.404zm0-179.808c45.438 0 82.404 36.966 82.404 82.404s-36.967 82.404-82.404 82.404-82.403-36.966-82.403-82.404 36.965-82.404 82.403-82.404zm-5.304 87.707c1.407 1.407 3.314 2.197 5.304 2.197h29.14c4.143 0 7.5-3.358 7.5-7.5s-3.357-7.5-7.5-7.5h-26.033l-29.365-29.367c-2.93-2.929-7.678-2.93-10.607 0-2.929 2.929-2.929 7.677 0 10.606z"/></g></svg>