<svg id="Capa_1" enable-background="new 0 0 512 512" height="512" viewBox="0 0 512 512" width="512" xmlns="http://www.w3.org/2000/svg"><g><g><path d="m296 125.906v-90.906h-80v90.908c0 4.533-3.045 8.515-7.431 9.659-81.276 21.188-141.087 95.528-140.056 183.677 1.204 102.969 84.511 185.256 187.488 185.256 103.553 0 187.499-83.947 187.499-187.5 0-87.173-59.494-160.438-140.09-181.439-4.378-1.141-7.41-5.13-7.41-9.655z" fill="#9bc5ff"/></g><g><path d="m107 317c0-103.553 83.947-187.5 187.5-187.5.73 0 1.456.019 2.184.028-.439-1.132-.684-2.354-.684-3.622v-90.906h-80v90.908c0 4.533-3.045 8.515-7.431 9.659-81.276 21.188-141.087 95.528-140.056 183.677 1.204 102.969 84.511 185.256 187.488 185.256 6.499 0 12.921-.332 19.249-.977-94.51-9.639-168.25-89.469-168.25-186.523z" fill="#82baff"/></g><g><path d="m321 67.5h-130c-5.523 0-10-4.477-10-10v-40c0-5.523 4.477-10 10-10h130c5.523 0 10 4.477 10 10v40c0 5.523-4.477 10-10 10z" fill="#b2d3ff"/></g><g><path d="m221 57.5v-40c0-5.523 4.477-10 10-10h-40c-5.523 0-10 4.477-10 10v40c0 5.523 4.477 10 10 10h40c-5.523 0-10-4.477-10-10z" fill="#9bc5ff"/></g><g><path d="m403.5 317c0-19.222-3.7-37.594-10.418-54.448-37.033-5.238-41.59-31.261-86.808-31.261-50.276 0-50.276 32.177-100.553 32.177-38.734 0-47.63-19.098-72.663-27.867-15.508 23.345-24.558 51.333-24.558 81.399 0 81.332 66.168 147.5 147.5 147.5s147.5-66.168 147.5-147.5z" fill="#c2fa93"/></g><g><g><path d="m331.621 315.346c0-41.763-33.855-75.619-75.617-75.621-41.91-.002-76.226 34.839-75.616 76.744.223 15.285 4.982 29.469 12.99 41.273 1.253 1.848 3.324 2.976 5.556 2.976h18.819c3.674 0 6.652 2.978 6.652 6.652v20.252c0 3.674 2.978 6.652 6.652 6.652h49.887c3.674 0 6.652-2.978 6.652-6.652v-20.252c0-3.674 2.978-6.652 6.652-6.652h18.818c2.23 0 4.3-1.124 5.552-2.969 8.206-12.094 13.003-26.688 13.003-42.403z" fill="#f2f6fc"/></g></g><g><path d="m264.405 387.623v-20.253c0-3.674-2.978-6.652-6.652-6.652h-18.819c-2.233 0-4.303-1.128-5.556-2.976-8.007-11.803-12.767-25.988-12.99-41.273-.51-35.017 23.376-65.085 55.694-74.027-6.396-1.758-13.124-2.716-20.078-2.717-41.91-.002-76.226 34.839-75.616 76.744.223 15.285 4.982 29.469 12.99 41.273 1.253 1.848 3.324 2.976 5.556 2.976h18.819c3.674 0 6.652 2.978 6.652 6.652v20.252c0 3.674 2.978 6.652 6.652 6.652h40c-3.674.001-6.652-2.978-6.652-6.651z" fill="#e9edf5"/></g><g><path d="m148.5 317c0-23.177 5.38-45.118 14.946-64.651-9.839-5.769-18.204-12.48-30.388-16.748-15.508 23.345-24.558 51.333-24.558 81.399 0 81.332 66.168 147.5 147.5 147.5 6.783 0 13.457-.47 20-1.361-71.905-9.791-127.5-71.59-127.5-146.139z" fill="#b8f291"/></g><g><path d="m305.301 128.303c-1.06-.276-1.801-1.262-1.801-2.396v-50.907h17.5c9.649 0 17.5-7.851 17.5-17.5v-40c0-9.649-7.85-17.5-17.5-17.5h-130c-9.649 0-17.5 7.851-17.5 17.5v40c0 9.649 7.851 17.5 17.5 17.5h17.5v50.907c0 1.134-.75 2.122-1.823 2.401-41.353 10.78-78.617 35.425-104.93 69.393-27.168 35.072-41.254 77.132-40.733 121.63.605 51.784 21.135 100.258 57.807 136.489 36.668 36.229 85.386 56.18 137.18 56.18 107.523 0 195-87.477 195-195-.001-88.749-59.914-166.344-145.7-188.697zm-49.3 368.697c-98.099 0-178.841-79.78-179.988-177.845-.97-82.933 54.317-155.442 134.448-176.331 7.677-2.002 13.039-8.958 13.039-16.917v-50.907h29.5c4.142 0 7.5-3.357 7.5-7.5s-3.358-7.5-7.5-7.5h-62c-1.378 0-2.5-1.121-2.5-2.5v-40c0-1.379 1.122-2.5 2.5-2.5h130c1.378 0 2.5 1.121 2.5 2.5v40c0 1.379-1.122 2.5-2.5 2.5h-40c-4.142 0-7.5 3.357-7.5 7.5s3.358 7.5 7.5 7.5h7.5v50.906c0 7.961 5.354 14.915 13.019 16.912 79.18 20.632 134.481 92.258 134.481 174.182 0 99.252-80.747 180-179.999 180z"/><path d="m400.048 259.774c-.996-2.498-3.253-4.272-5.917-4.648-14.828-2.098-23.914-7.911-33.534-14.066-12.651-8.094-26.991-17.269-54.324-17.269-19.379 0-31.725 4.611-40.406 9.041-3.238-.385-6.525-.606-9.864-.606-.001 0-.003 0-.004 0-21.608 0-41.975 8.328-57.609 23.46-18.142-1.366-28.252-7.816-38.909-14.63-7.047-4.507-14.335-9.167-23.944-12.532-3.237-1.133-6.829.072-8.727 2.928-16.885 25.418-25.81 55-25.81 85.548 0 85.467 69.533 155 155 155 35.922 0 70.962-12.621 98.664-35.538 3.191-2.641 3.638-7.368.998-10.56-2.639-3.19-7.368-3.639-10.56-.998-25.018 20.698-56.662 32.096-89.102 32.096-77.196 0-140-62.804-140-140 0-25.551 6.916-50.355 20.052-72.113 5.512 2.516 10.325 5.593 15.35 8.806 9.362 5.987 19.713 12.599 35.554 15.608-9.383 13.921-14.315 30.253-14.067 47.279.237 16.259 5.175 31.949 14.282 45.374 2.661 3.923 7.059 6.265 11.763 6.265h17.971v19.405c0 7.803 6.349 14.151 14.152 14.151h49.887c7.803 0 14.152-6.349 14.152-14.151v-19.405h17.971c4.704 0 9.099-2.339 11.758-6.258 9.353-13.784 14.296-29.903 14.296-46.614 0-33.291-19.683-62.059-48.015-75.318 4.372-.768 9.361-1.237 15.169-1.237 22.945 0 34.26 7.239 46.24 14.904 9.658 6.179 19.618 12.551 35.092 15.544 5.571 15.289 8.393 31.335 8.393 47.76 0 32.44-11.398 64.084-32.096 89.102-2.64 3.192-2.193 7.92.998 10.56 1.399 1.157 3.093 1.722 4.777 1.722 2.158 0 4.3-.927 5.783-2.719 22.917-27.703 35.538-62.742 35.538-98.665 0-19.741-3.684-38.994-10.952-57.226zm-75.927 55.572c0 13.567-3.973 26.654-11.493 37.872h-18.38c-7.804 0-14.152 6.349-14.152 14.152v19.404h-48.19v-19.404c0-7.804-6.349-14.152-14.152-14.152h-18.38c-7.323-10.925-11.293-23.661-11.486-36.857-.266-18.25 6.736-35.554 19.716-48.724 12.973-13.163 30.162-20.412 48.4-20.411 37.559.002 68.117 30.56 68.117 68.12z"/><path d="m281 328.83c4.142 0 7.5-3.357 7.5-7.5v-14.163c0-4.143-3.358-7.5-7.5-7.5s-7.5 3.357-7.5 7.5v14.163c0 4.143 3.358 7.5 7.5 7.5z"/><path d="m231 299.667c-4.142 0-7.5 3.357-7.5 7.5v14.163c0 4.143 3.358 7.5 7.5 7.5s7.5-3.357 7.5-7.5v-14.163c0-4.143-3.358-7.5-7.5-7.5z"/></g></g></svg>